<svg enable-background="new 0 0 140 140" height="512" viewBox="0 0 140 140" width="512" xmlns="http://www.w3.org/2000/svg"><circle cx="70" cy="70" fill="#dbd8dd" r="64"/><path d="m132.0483398 85.7207718-16.6935425-16.6936035c-9.9500122-10.1999512-24.5599976-21.8898926-29.0300293-23.1398926-3.0599976-.8500977-8.0700073 1.1398926-11.8099976 3.0200195-2.8399658 1.4299316-6.1900024 1.4299316-9.0299683 0-3.7400475-1.880127-8.7499962-3.8701172-11.800045-3.0200195-5.3699951 1.5-25.3299561 18.0300293-34.3499756 28.9799805l.1300049.1300049 50.8200036 50.8199462 7.6727295 7.6727371c26.3394165-3.269165 47.7145386-22.5257644 54.0908203-47.7691726z" opacity=".1"/><path d="m86.3203583 45.8889732c-3.0568771-.855938-8.0614395 1.1423874-11.8031616 3.0211182-2.83815 1.4250488-6.1960983 1.4250488-9.0342484 0-3.7417183-1.8787308-8.7462845-3.8770561-11.8031654-3.0211182-5.3662643 1.5025711-25.3290024 18.0308037-34.3444939 28.9780846 0 0 11.5912628 11.3766174 27.9049187 16.7429199 0 0 10.3214035 3.0590668 22.759861 2.6709442 12.4384613.3881226 22.7598648-2.6709442 22.7598648-2.6709442 16.3136597-5.3663025 27.9047775-16.7429199 27.9047775-16.7429199-9.0153503-10.9472809-28.9780884-27.4755135-34.3443527-28.9780846z" fill="#de594e"/><path d="m115.1626053 75.0196152c-3.5727997-1.4903183-7.1855392-2.8306198-10.8506317-3.9589767-1.8322525-.559227-3.6662445-1.1034164-5.5245972-1.5243835-.9243469-.2318115-1.8573456-.4098282-2.7829971-.6170883-.9319916-.1674881-1.8615265-.3539429-2.7958221-.4772415-.9335785-.1267166-1.86586-.2516327-2.8090973-.3187256-.9394913-.0995026-1.876236-.1421127-2.8125534-.1940231-1.8730698-.0696869-3.7296906.003418-5.5942535.2001877-1.8613815.1935959-3.7673264.4818192-5.7556152.6670151-1.9846802.186348-4.0257416.2112579-6.0275803.0494995-1.0043793-.0703735-1.9926147-.2328568-2.9778137-.3684082-.9312668-.1355896-1.8623962-.2848358-2.7958298-.3773804-1.8661423-.2106781-3.7357483-.3036575-5.6063614-.3023987-1.871048-.0009003-3.7455559.1247025-5.6240997.3407211-1.8772507.223587-3.7622833.5118179-5.6559715.818573l-5.6959152.9876938c-1.9119987.3146896-3.7914085.6321487-5.6689453 1.0241013-1.8848915.3594589-3.7266655.8316193-5.5884838 1.3557281-.9332886.2551346-1.8876305.506012-2.8542309.6609268-.9683285.1480637-1.9381008.2174606-2.9044113.2630997 1.9109917-.369812 3.7273846-.9331818 5.4921532-1.703125 1.781208-.7544403 3.6336517-1.4161148 5.4957581-1.9895477 1.8636932-.5628586 3.7627182-1.0439987 5.6305923-1.5141373 1.8726311-.4695282 3.7520447-.9160919 5.6474609-1.3514481 3.7800179-.8853378 7.6909752-1.5420761 11.6761971-1.6913681 1.9901619-.0629044 3.9830589.0395126 5.9559174.2301483.98909.086853 1.9666519.23069 2.9469528.362175.9283829.1173096 1.8489838.2519226 2.7717438.314003 1.844368.1699448 3.6773453.1708069 5.5381546.0195389 1.8593674-.1373901 3.7731018-.4417343 5.7593613-.5717316 1.9812241-.1383667 3.9937363-.1452866 5.9761047.0004654 1.9838181.1553802 3.9354706.4212189 5.8757401.828743 3.8785095.7733994 7.5955124 2.051445 11.2000351 3.5242004 3.58419 1.5266189 7.0798413 3.2432174 10.359039 5.3131637z" fill="#cd5248"/><path d="m32.6045456 64.9803848s13.6440201-12.5517235 19.6679916-15.1070061c2.8831253-1.2229805 8.6588669.3710938 12.7409058 3.7109413 0 0-5.5664177-2.5976601-12.7409058.6184921-7.174488 3.2161485-19.6679916 10.7775727-19.6679916 10.7775727z" fill="#fff" opacity=".25"/></svg>